<svg width="72" height="72" viewBox="0 0 72 72" fill="none" xmlns="http://www.w3.org/2000/svg">
<rect width="72" height="72" rx="36" fill="white"/>
<g clip-path="url(#clip0_965_15)">
<g clip-path="url(#clip1_965_15)">
<path d="M35.9039 35.7044C38.5044 35.7044 40.5269 33.5697 40.5269 30.9499C40.5269 28.3301 38.408 26.2925 35.8076 26.2925C33.2071 26.2925 31.1846 28.4271 31.1846 30.9499C31.1846 33.5697 33.3035 35.7044 35.9039 35.7044ZM35.8076 28.2331C35.9039 28.2331 35.9039 28.2331 35.8076 28.2331C37.3486 28.2331 38.6007 29.4945 38.6007 31.047C38.6007 32.5994 37.3486 33.7638 35.8076 33.7638C34.2666 33.7638 33.1108 32.5024 33.1108 31.047C33.1108 29.4945 34.3629 28.2331 35.8076 28.2331Z" fill="#FFA62B"/>
<path d="M50.158 35.122C48.3281 33.4725 45.9203 32.5992 43.4161 32.6963H42.6456C42.453 33.4725 42.1641 34.1517 41.7788 34.7339C42.3567 34.6369 42.8383 34.6369 43.4161 34.6369C45.2461 34.5398 47.076 35.122 48.5207 36.1894V43.1755H50.447V35.4131L50.158 35.122Z" fill="#FFA62B"/>
<path d="M41.2009 26.4859C41.6825 25.3215 43.0309 24.7394 44.2829 25.2245C45.4387 25.7097 46.0166 27.0681 45.535 28.3295C45.1498 29.2027 44.2829 29.7849 43.4161 29.7849C43.2235 29.7849 42.9346 29.7849 42.7419 29.6879C42.8382 30.173 42.8382 30.6582 42.8382 31.0463V31.6285C43.0309 31.6285 43.2235 31.7255 43.4161 31.7255C45.8239 31.7255 47.7502 29.7849 47.7502 27.4562C47.7502 25.0304 45.8239 23.0898 43.5124 23.0898C41.9714 23.0898 40.623 23.8661 39.8525 25.2245C40.3341 25.5156 40.8157 25.9037 41.2009 26.4859Z" fill="#FFA62B"/>
<path d="M30.2214 34.8306C29.8361 34.2484 29.5472 33.5692 29.3546 32.793H28.5841C26.0799 32.6959 23.6721 33.5692 21.8422 35.1217L21.5532 35.4128V43.1752H23.4795V36.189C25.0205 35.1217 26.7541 34.5395 28.5841 34.6365C29.1619 34.6365 29.7398 34.7336 30.2214 34.8306Z" fill="#FFA62B"/>
<path d="M28.5837 31.6291C28.7763 31.6291 28.969 31.6291 29.1616 31.5321V30.9499C29.1616 30.4648 29.1616 29.9796 29.2579 29.5915C29.0653 29.6885 28.7763 29.6885 28.5837 29.6885C27.3316 29.6885 26.2722 28.6212 26.2722 27.3598C26.2722 26.0984 27.3316 25.0311 28.5837 25.0311C29.5468 25.0311 30.4137 25.6133 30.7989 26.4865C31.1842 26.0014 31.762 25.5162 32.2436 25.1281C30.9915 23.0905 28.3911 22.4113 26.3685 23.6727C24.3459 24.9341 23.6718 27.5539 24.9238 29.5915C25.6943 30.8529 27.0427 31.6291 28.5837 31.6291Z" fill="#FFA62B"/>
<path d="M43.8013 40.9435L43.6087 40.6524C41.6824 38.5177 38.9857 37.2563 36.0963 37.3534C33.2069 37.2563 30.4138 38.5177 28.4875 40.6524L28.2949 40.9435V48.3178C28.2949 49.1911 28.9691 49.9673 29.9322 49.9673H42.2603C43.1271 49.9673 43.8976 49.1911 43.8976 48.3178V40.9435H43.8013ZM41.875 48.0267H30.2212V41.6227C31.7622 40.0702 33.8811 39.294 36.0963 39.294C38.2152 39.1969 40.334 40.0702 41.875 41.6227V48.0267Z" fill="#FFA62B"/>
</g>
</g>
<defs>
<clipPath id="clip0_965_15">
<rect width="32" height="26.353" fill="white" transform="translate(20 23)"/>
</clipPath>
<clipPath id="clip1_965_15">
<rect width="29" height="27" fill="white" transform="translate(21.5 23)"/>
</clipPath>
</defs>
</svg>
