<svg width="73" height="72" viewBox="0 0 73 72" fill="none" xmlns="http://www.w3.org/2000/svg">
<rect x="0.5" width="72" height="72" rx="36" fill="white"/>
<g clip-path="url(#clip0_965_30)">
<path d="M31.0427 42.6624C30.5019 42.1193 30.7838 42.2724 29.4796 41.9218C28.8879 41.7624 28.3677 41.4562 27.8973 41.0893L25.0743 48.0418C24.8011 48.7149 25.3114 49.4462 26.0344 49.4187L29.3129 49.2931L31.5678 51.6856C32.0656 52.2131 32.9392 52.0487 33.2123 51.3756L36.451 43.3993C35.7765 43.7768 35.028 43.9981 34.2539 43.9981C33.0406 43.9981 31.9007 43.5237 31.0427 42.6624ZM48.8183 48.0418L45.9953 41.0893C45.5249 41.4568 45.0047 41.7624 44.413 41.9218C43.1019 42.2743 43.3894 42.1206 42.85 42.6624C41.9919 43.5237 40.8514 43.9981 39.638 43.9981C38.864 43.9981 38.1155 43.7762 37.441 43.3993L40.6796 51.3756C40.9528 52.0487 41.827 52.2131 42.3242 51.6856L44.5797 49.2931L47.8582 49.4187C48.5812 49.4462 49.0915 48.7143 48.8183 48.0418ZM41.3641 41.2481C42.3148 40.2762 42.4237 40.3599 43.7777 39.9893C44.642 39.7524 45.3177 39.0618 45.5492 38.1781C46.0146 36.4031 45.8939 36.6174 47.1638 35.3187C47.7966 34.6718 48.0436 33.7287 47.8122 32.8449C47.3474 31.0712 47.3468 31.3187 47.8122 29.5431C48.0436 28.6593 47.7966 27.7162 47.1638 27.0693C45.8939 25.7706 46.0146 25.9843 45.5492 24.2099C45.3177 23.3262 44.642 22.6356 43.7777 22.3987C42.0429 21.9231 42.252 22.0474 40.9808 20.7481C40.348 20.1012 39.4252 19.8481 38.561 20.0849C36.8268 20.5599 37.0689 20.5606 35.3316 20.0849C34.4674 19.8481 33.5446 20.1006 32.9118 20.7481C31.6419 22.0468 31.8509 21.9231 30.1155 22.3987C29.2513 22.6356 28.5755 23.3262 28.3441 24.2099C27.8793 25.9843 27.9994 25.7706 26.7294 27.0693C26.0966 27.7162 25.849 28.6593 26.0811 29.5431C26.5459 31.3156 26.5465 31.0681 26.0811 32.8443C25.8496 33.7281 26.0966 34.6712 26.7294 35.3187C27.9994 36.6174 27.8787 36.4031 28.3441 38.1781C28.5755 39.0618 29.2513 39.7524 30.1155 39.9893C31.5081 40.3706 31.612 40.3106 32.5285 41.2481C33.3517 42.0899 34.6341 42.2406 35.6235 41.6118C36.0191 41.3595 36.478 41.2256 36.9466 41.2256C37.4152 41.2256 37.8742 41.3595 38.2698 41.6118C39.2585 42.2406 40.5409 42.0899 41.3641 41.2481ZM31.0763 30.9956C31.0763 27.6812 33.7045 24.9943 36.9463 24.9943C40.1881 24.9943 42.8163 27.6812 42.8163 30.9956C42.8163 34.3099 40.1881 36.9968 36.9463 36.9968C33.7045 36.9968 31.0763 34.3099 31.0763 30.9956Z" fill="#FFA62B"/>
</g>
<defs>
<clipPath id="clip0_965_30">
<rect width="23.8933" height="32" fill="white" transform="translate(25 20)"/>
</clipPath>
</defs>
</svg>
