<svg width="72" height="72" viewBox="0 0 72 72" fill="none" xmlns="http://www.w3.org/2000/svg">
<rect width="72" height="72" rx="36" fill="white"/>
<g clip-path="url(#clip0_965_45)">
<g clip-path="url(#clip1_965_45)">
<path d="M39.9277 29.7495H47.9263V32.0464H39.9277V29.7495Z" fill="#FFA62B"/>
<path d="M39.9277 35.4917H47.9263V37.7886H39.9277V35.4917Z" fill="#FFA62B"/>
<path d="M39.9277 41.2339H47.9263V43.5308H39.9277V41.2339Z" fill="#FFA62B"/>
<path d="M50.2119 24.0073H22.7882C22.1823 24.0079 21.6014 24.2501 21.1729 24.6807C20.7445 25.1114 20.5035 25.6952 20.5029 26.3042V46.9761C20.5035 47.5851 20.7445 48.169 21.1729 48.5996C21.6014 49.0302 22.1823 49.2724 22.7882 49.273H50.2119C50.8177 49.2721 51.3985 49.0298 51.8269 48.5992C52.2553 48.1687 52.4963 47.585 52.4972 46.9761V26.3042C52.4966 25.6952 52.2557 25.1114 51.8272 24.6807C51.3988 24.2501 50.8178 24.0079 50.2119 24.0073ZM22.7882 26.3042H35.3574V46.9761H22.7882V26.3042ZM37.6427 46.9761V26.3042H50.2119L50.2142 46.9761H37.6427Z" fill="#FFA62B"/>
</g>
</g>
<defs>
<clipPath id="clip0_965_45">
<rect width="32" height="26.353" fill="white" transform="translate(20 23)"/>
</clipPath>
<clipPath id="clip1_965_45">
<rect width="32" height="25.28" fill="white" transform="translate(20.5 24)"/>
</clipPath>
</defs>
</svg>
